<?xml version="1.0" encoding="utf-8"?>
<!-- Generator: Adobe Illustrator 17.0.0, SVG Export Plug-In . SVG Version: 6.00 Build 0)  -->
<!DOCTYPE svg PUBLIC "-//W3C//DTD SVG 1.1//EN" "http://www.w3.org/Graphics/SVG/1.1/DTD/svg11.dtd">
<svg version="1.1" id="Layer_1" xmlns="http://www.w3.org/2000/svg" xmlns:xlink="http://www.w3.org/1999/xlink" x="0px" y="0px"
	 width="1000px" height="560px" viewBox="0 0 1000 560" enable-background="new 0 0 1000 560" xml:space="preserve">
<g>
	<rect fill="#CCCCCC" width="1000" height="560"/>
	<g>
		<path fill="#999999" d="M301.599,315.467v-79.17h34.52c18.473,0,27.709,7.601,27.709,22.801c0,15.765-9.22,23.646-27.656,23.646
			h-18.738v32.724h-15.835V315.467z M317.433,267.965h22.168c6.367-0.105,9.641-3.009,9.817-8.709
			c-0.177-5.207-3.396-7.917-9.66-8.128h-22.325L317.433,267.965L317.433,267.965z"/>
		<path fill="#999999" d="M375.49,315.467v-79.17h15.835v31.668h36.894v-31.721h15.835v79.171l-15.835,0.052v-32.724h-36.894v32.724
			H375.49z"/>
		<path fill="#999999" d="M468.489,304.093c-7.565-7.582-11.348-16.986-11.348-28.21c0-11.261,3.782-20.673,11.348-28.238
			c7.564-7.564,16.977-11.348,28.238-11.348c11.26,0,20.672,3.783,28.237,11.348c7.564,7.565,11.347,16.978,11.347,28.238
			c0,11.259-3.782,20.671-11.347,28.236s-16.978,11.348-28.237,11.348C485.466,315.467,476.054,311.676,468.489,304.093z
			 M496.779,300.688c7.002,0,12.702-2.375,17.102-7.125c4.398-4.75,6.597-10.644,6.597-17.681c0-7.038-2.198-12.933-6.597-17.683
			s-10.134-7.125-17.206-7.125c-7.003,0-12.703,2.375-17.102,7.125s-6.598,10.645-6.598,17.683c0,7.037,2.198,12.931,6.598,17.681
			C483.972,298.313,489.707,300.688,496.779,300.688z"/>
		<path fill="#999999" d="M612.686,236.297v14.778h-26.391v64.392h-15.834v-64.392H544.07v-14.778L612.686,236.297L612.686,236.297z
			"/>
		<path fill="#999999" d="M631.792,304.093c-7.566-7.582-11.349-16.986-11.349-28.21c0-11.261,3.782-20.673,11.349-28.238
			c7.564-7.564,16.978-11.348,28.238-11.348c11.259,0,20.671,3.783,28.236,11.348c7.565,7.565,11.348,16.978,11.348,28.238
			c0,11.259-3.782,20.671-11.348,28.236s-16.978,11.348-28.236,11.348C648.77,315.467,639.356,311.676,631.792,304.093z
			 M660.082,300.688c7.002,0,12.701-2.375,17.102-7.125c4.397-4.75,6.597-10.644,6.597-17.681c0-7.038-2.199-12.933-6.597-17.683
			c-4.4-4.75-10.135-7.125-17.207-7.125c-7.003,0-12.702,2.375-17.101,7.125s-6.599,10.645-6.599,17.683
			c0,7.037,2.199,12.931,6.599,17.681C647.274,298.313,653.01,300.688,660.082,300.688z"/>
	</g>
</g>
</svg>
